<svg width="153" height="52" viewBox="0 0 153 52" fill="none" xmlns="http://www.w3.org/2000/svg">
<g filter="url(#filter0_d_48_3955)">
<path d="M57.6973 29.3613C56.7272 29.3613 55.487 29.1497 53.9766 28.7266V26.6953C55.6042 27.4505 56.9421 27.8281 57.9902 27.8281C58.7975 27.8281 59.4453 27.6165 59.9336 27.1934C60.4284 26.7702 60.6758 26.2135 60.6758 25.5234C60.6758 24.957 60.513 24.4753 60.1875 24.0781C59.8685 23.681 59.276 23.2383 58.4102 22.75L57.4141 22.1738C56.1836 21.4707 55.3145 20.8099 54.8066 20.1914C54.3053 19.5664 54.0547 18.8405 54.0547 18.0137C54.0547 16.9004 54.4583 15.9857 55.2656 15.2695C56.0729 14.5469 57.1016 14.1855 58.3516 14.1855C59.4648 14.1855 60.64 14.3711 61.877 14.7422V16.6172C60.3535 16.0182 59.2174 15.7188 58.4688 15.7188C57.7591 15.7188 57.1732 15.9076 56.7109 16.2852C56.2487 16.6628 56.0176 17.138 56.0176 17.7109C56.0176 18.1927 56.1868 18.6191 56.5254 18.9902C56.8639 19.3613 57.4824 19.804 58.3809 20.3184L59.416 20.9043C60.666 21.6139 61.5384 22.2845 62.0332 22.916C62.528 23.5475 62.7754 24.306 62.7754 25.1914C62.7754 26.4479 62.3099 27.457 61.3789 28.2188C60.4544 28.9805 59.2272 29.3613 57.6973 29.3613ZM65.7051 29V13.5801H67.6289V23.541L72.1211 18.3945H74.1914L69.9043 23.3457L75.0801 29H72.6191L67.6289 23.5605V29H65.7051ZM78.0195 32.8574L79.7383 29L75.6367 18.3945H77.7168L80.7539 26.3828L83.9961 18.3945H85.8125L80.0215 32.8574H78.0195ZM87.7949 29V14.5469H89.8457V20.6406H96.7207V14.5469H98.7715V29H96.7207V22.1738H89.8457V29H87.7949ZM102.561 29V18.3945H104.484V29H102.561ZM102.561 16.4707V14.5469H104.484V16.4707H102.561ZM108.381 32.5254L108.605 30.8555C109.719 31.3828 110.816 31.6465 111.896 31.6465C114.064 31.6465 115.148 30.4974 115.148 28.1992V26.5293C114.439 28.0137 113.273 28.7559 111.652 28.7559C110.383 28.7559 109.374 28.2936 108.625 27.3691C107.876 26.4447 107.502 25.1979 107.502 23.6289C107.502 22.0143 107.928 20.6992 108.781 19.6836C109.634 18.668 110.738 18.1602 112.092 18.1602C113.277 18.1602 114.296 18.6419 115.148 19.6055V18.3945H117.082V26.1094C117.082 27.7695 116.994 28.9967 116.818 29.791C116.649 30.5918 116.327 31.2461 115.852 31.7539C115.012 32.6458 113.706 33.0918 111.936 33.0918C110.699 33.0918 109.514 32.903 108.381 32.5254ZM115.148 25.3281V20.9238C114.302 20.0449 113.381 19.6055 112.385 19.6055C111.499 19.6055 110.806 19.9603 110.305 20.6699C109.803 21.3796 109.553 22.3529 109.553 23.5898C109.553 25.9141 110.37 27.0762 112.004 27.0762C113.117 27.0762 114.165 26.4935 115.148 25.3281ZM120.822 29V13.5801H122.746V20.3867C123.762 18.9023 125.005 18.1602 126.477 18.1602C127.395 18.1602 128.127 18.4531 128.674 19.0391C129.221 19.6185 129.494 20.3997 129.494 21.3828V29H127.57V22.0078C127.57 21.2201 127.453 20.6602 127.219 20.3281C126.991 19.9896 126.61 19.8203 126.076 19.8203C124.898 19.8203 123.788 20.5918 122.746 22.1348V29H120.822Z" fill="black"/>
<path d="M53.9766 28.7266H53.4766V29.1057L53.8417 29.208L53.9766 28.7266ZM53.9766 26.6953L54.187 26.2418L53.4766 25.9121V26.6953H53.9766ZM59.9336 27.1934L59.6086 26.8134L59.6061 26.8155L59.9336 27.1934ZM60.1875 24.0781L59.7977 24.3913L59.8008 24.3951L60.1875 24.0781ZM58.4102 22.75L58.1598 23.1828L58.1646 23.1855L58.4102 22.75ZM57.4141 22.1738L57.6644 21.741L57.6621 21.7397L57.4141 22.1738ZM54.8066 20.1914L54.4166 20.5043L54.4202 20.5087L54.8066 20.1914ZM55.2656 15.2695L55.5974 15.6436L55.5991 15.6421L55.2656 15.2695ZM61.877 14.7422H62.377V14.3702L62.0206 14.2633L61.877 14.7422ZM61.877 16.6172L61.694 17.0825L62.377 17.351V16.6172H61.877ZM58.3809 20.3184L58.1324 20.7523L58.1346 20.7535L58.3809 20.3184ZM59.416 20.9043L59.6629 20.4695L59.6623 20.4692L59.416 20.9043ZM61.3789 28.2188L61.0623 27.8318L61.061 27.8329L61.3789 28.2188ZM57.6973 28.8613C56.792 28.8613 55.6014 28.6625 54.1115 28.2451L53.8417 29.208C55.3725 29.6369 56.6624 29.8613 57.6973 29.8613V28.8613ZM54.4766 28.7266V26.6953H53.4766V28.7266H54.4766ZM53.7661 27.1489C55.4191 27.9159 56.8351 28.3281 57.9902 28.3281V27.3281C57.0491 27.3281 55.7892 26.9852 54.187 26.2418L53.7661 27.1489ZM57.9902 28.3281C58.8868 28.3281 59.6609 28.0914 60.2611 27.5712L59.6061 26.8155C59.2297 27.1417 58.7083 27.3281 57.9902 27.3281V28.3281ZM60.2586 27.5733C60.8718 27.0489 61.1758 26.3497 61.1758 25.5234H60.1758C60.1758 26.0774 59.985 26.4915 59.6086 26.8134L60.2586 27.5733ZM61.1758 25.5234C61.1758 24.8542 60.9806 24.257 60.5742 23.7612L59.8008 24.3951C60.0454 24.6935 60.1758 25.0599 60.1758 25.5234H61.1758ZM60.5773 23.765C60.1963 23.2907 59.5345 22.81 58.6558 22.3145L58.1646 23.1855C59.0176 23.6666 59.5406 24.0712 59.7977 24.3913L60.5773 23.765ZM58.6605 22.3172L57.6644 21.741L57.1637 22.6066L58.1598 23.1828L58.6605 22.3172ZM57.6621 21.7397C56.4502 21.0472 55.6433 20.4225 55.1931 19.8741L54.4202 20.5087C54.9856 21.1973 55.917 21.8942 57.166 22.6079L57.6621 21.7397ZM55.1967 19.8786C54.769 19.3453 54.5547 18.7307 54.5547 18.0137H53.5547C53.5547 18.9503 53.8417 19.7875 54.4166 20.5042L55.1967 19.8786ZM54.5547 18.0137C54.5547 17.0382 54.9009 16.2615 55.5974 15.6436L54.9338 14.8955C54.0158 15.7099 53.5547 16.7626 53.5547 18.0137H54.5547ZM55.5991 15.6421C56.3007 15.014 57.2045 14.6855 58.3516 14.6855V13.6855C56.9987 13.6855 55.8451 14.0797 54.9321 14.897L55.5991 15.6421ZM58.3516 14.6855C59.4091 14.6855 60.5356 14.8618 61.7333 15.2211L62.0206 14.2633C60.7443 13.8804 59.5206 13.6855 58.3516 13.6855V14.6855ZM61.377 14.7422V16.6172H62.377V14.7422H61.377ZM62.0599 16.1519C60.5309 15.5507 59.3189 15.2188 58.4688 15.2188V16.2188C59.116 16.2188 60.1761 16.4857 61.694 17.0825L62.0599 16.1519ZM58.4688 15.2188C57.6665 15.2188 56.9623 15.4342 56.3946 15.8979L57.0273 16.6724C57.3841 16.3809 57.8517 16.2188 58.4688 16.2188V15.2188ZM56.3946 15.8979C55.8217 16.3659 55.5176 16.9808 55.5176 17.7109H56.5176C56.5176 17.2952 56.6757 16.9596 57.0273 16.6724L56.3946 15.8979ZM55.5176 17.7109C55.5176 18.3231 55.7374 18.8683 56.156 19.3272L56.8948 18.6533C56.6363 18.37 56.5176 18.0623 56.5176 17.7109H55.5176ZM56.156 19.3272C56.55 19.7591 57.2262 20.2335 58.1325 20.7523L58.6293 19.8844C57.7386 19.3746 57.1779 18.9636 56.8948 18.6533L56.156 19.3272ZM58.1346 20.7535L59.1697 21.3394L59.6623 20.4692L58.6272 19.8832L58.1346 20.7535ZM59.1692 21.3391C60.4002 22.038 61.2051 22.6699 61.6396 23.2244L62.4268 22.6076C61.8717 21.8992 60.9318 21.1899 59.6629 20.4695L59.1692 21.3391ZM61.6396 23.2244C62.0583 23.7587 62.2754 24.4055 62.2754 25.1914H63.2754C63.2754 24.2065 62.9977 23.3364 62.4268 22.6076L61.6396 23.2244ZM62.2754 25.1914C62.2754 26.3057 61.8714 27.1698 61.0623 27.8318L61.6955 28.6057C62.7484 27.7443 63.2754 26.5902 63.2754 25.1914H62.2754ZM61.061 27.8329C60.2484 28.5023 59.144 28.8613 57.6973 28.8613V29.8613C59.3104 29.8613 60.6604 29.4586 61.6969 28.6046L61.061 27.8329ZM65.7051 29H65.2051V29.5H65.7051V29ZM65.7051 13.5801V13.0801H65.2051V13.5801H65.7051ZM67.6289 13.5801H68.1289V13.0801H67.6289V13.5801ZM67.6289 23.541H67.1289V24.8742L68.0056 23.8698L67.6289 23.541ZM72.1211 18.3945V17.8945H71.8938L71.7444 18.0657L72.1211 18.3945ZM74.1914 18.3945L74.5694 18.7218L75.2857 17.8945H74.1914V18.3945ZM69.9043 23.3457L69.5263 23.0184L69.2349 23.3549L69.5355 23.6833L69.9043 23.3457ZM75.0801 29V29.5H76.2156L75.4489 28.6624L75.0801 29ZM72.6191 29L72.2507 29.338L72.3993 29.5H72.6191V29ZM67.6289 23.5605L67.9973 23.2225L67.1289 22.2759V23.5605H67.6289ZM67.6289 29V29.5H68.1289V29H67.6289ZM66.2051 29V13.5801H65.2051V29H66.2051ZM65.7051 14.0801H67.6289V13.0801H65.7051V14.0801ZM67.1289 13.5801V23.541H68.1289V13.5801H67.1289ZM68.0056 23.8698L72.4978 18.7233L71.7444 18.0657L67.2522 23.2122L68.0056 23.8698ZM72.1211 18.8945H74.1914V17.8945H72.1211V18.8945ZM73.8134 18.0672L69.5263 23.0184L70.2823 23.673L74.5694 18.7218L73.8134 18.0672ZM69.5355 23.6833L74.7113 29.3376L75.4489 28.6624L70.2731 23.0081L69.5355 23.6833ZM75.0801 28.5H72.6191V29.5H75.0801V28.5ZM72.9876 28.662L67.9973 23.2225L67.2605 23.8986L72.2507 29.338L72.9876 28.662ZM67.1289 23.5605V29H68.1289V23.5605H67.1289ZM67.6289 28.5H65.7051V29.5H67.6289V28.5ZM78.0195 32.8574L77.5628 32.6539L77.2494 33.3574H78.0195V32.8574ZM79.7383 29L80.195 29.2035L80.2796 29.0136L80.2046 28.8196L79.7383 29ZM75.6367 18.3945V17.8945H74.9073L75.1704 18.5749L75.6367 18.3945ZM77.7168 18.3945L78.1842 18.2168L78.0616 17.8945H77.7168V18.3945ZM80.7539 26.3828L80.2865 26.5605L80.7387 27.7498L81.2172 26.5708L80.7539 26.3828ZM83.9961 18.3945V17.8945H83.6594L83.5328 18.2065L83.9961 18.3945ZM85.8125 18.3945L86.2767 18.5804L86.5513 17.8945H85.8125V18.3945ZM80.0215 32.8574V33.3574H80.3599L80.4857 33.0433L80.0215 32.8574ZM78.4762 33.0609L80.195 29.2035L79.2816 28.7965L77.5628 32.6539L78.4762 33.0609ZM80.2046 28.8196L76.1031 18.2142L75.1704 18.5749L79.2719 29.1804L80.2046 28.8196ZM75.6367 18.8945H77.7168V17.8945H75.6367V18.8945ZM77.2494 18.5722L80.2865 26.5605L81.2213 26.2051L78.1842 18.2168L77.2494 18.5722ZM81.2172 26.5708L84.4594 18.5826L83.5328 18.2065L80.2906 26.1948L81.2172 26.5708ZM83.9961 18.8945H85.8125V17.8945H83.9961V18.8945ZM85.3483 18.2087L79.5573 32.6716L80.4857 33.0433L86.2767 18.5804L85.3483 18.2087ZM80.0215 32.3574H78.0195V33.3574H80.0215V32.3574ZM87.7949 29H87.2949V29.5H87.7949V29ZM87.7949 14.5469V14.0469H87.2949V14.5469H87.7949ZM89.8457 14.5469H90.3457V14.0469H89.8457V14.5469ZM89.8457 20.6406H89.3457V21.1406H89.8457V20.6406ZM96.7207 20.6406V21.1406H97.2207V20.6406H96.7207ZM96.7207 14.5469V14.0469H96.2207V14.5469H96.7207ZM98.7715 14.5469H99.2715V14.0469H98.7715V14.5469ZM98.7715 29V29.5H99.2715V29H98.7715ZM96.7207 29H96.2207V29.5H96.7207V29ZM96.7207 22.1738H97.2207V21.6738H96.7207V22.1738ZM89.8457 22.1738V21.6738H89.3457V22.1738H89.8457ZM89.8457 29V29.5H90.3457V29H89.8457ZM88.2949 29V14.5469H87.2949V29H88.2949ZM87.7949 15.0469H89.8457V14.0469H87.7949V15.0469ZM89.3457 14.5469V20.6406H90.3457V14.5469H89.3457ZM89.8457 21.1406H96.7207V20.1406H89.8457V21.1406ZM97.2207 20.6406V14.5469H96.2207V20.6406H97.2207ZM96.7207 15.0469H98.7715V14.0469H96.7207V15.0469ZM98.2715 14.5469V29H99.2715V14.5469H98.2715ZM98.7715 28.5H96.7207V29.5H98.7715V28.5ZM97.2207 29V22.1738H96.2207V29H97.2207ZM96.7207 21.6738H89.8457V22.6738H96.7207V21.6738ZM89.3457 22.1738V29H90.3457V22.1738H89.3457ZM89.8457 28.5H87.7949V29.5H89.8457V28.5ZM102.561 29H102.061V29.5H102.561V29ZM102.561 18.3945V17.8945H102.061V18.3945H102.561ZM104.484 18.3945H104.984V17.8945H104.484V18.3945ZM104.484 29V29.5H104.984V29H104.484ZM102.561 16.4707H102.061V16.9707H102.561V16.4707ZM102.561 14.5469V14.0469H102.061V14.5469H102.561ZM104.484 14.5469H104.984V14.0469H104.484V14.5469ZM104.484 16.4707V16.9707H104.984V16.4707H104.484ZM103.061 29V18.3945H102.061V29H103.061ZM102.561 18.8945H104.484V17.8945H102.561V18.8945ZM103.984 18.3945V29H104.984V18.3945H103.984ZM104.484 28.5H102.561V29.5H104.484V28.5ZM103.061 16.4707V14.5469H102.061V16.4707H103.061ZM102.561 15.0469H104.484V14.0469H102.561V15.0469ZM103.984 14.5469V16.4707H104.984V14.5469H103.984ZM104.484 15.9707H102.561V16.9707H104.484V15.9707ZM108.381 32.5254L107.885 32.4587L107.83 32.8689L108.223 32.9997L108.381 32.5254ZM108.605 30.8555L108.82 30.4036L108.201 30.1107L108.11 30.7888L108.605 30.8555ZM115.148 26.5293H115.648L114.697 26.3136L115.148 26.5293ZM108.625 27.3691L108.236 27.6838L108.625 27.3691ZM115.148 19.6055L114.774 19.9369L115.648 20.9247V19.6055H115.148ZM115.148 18.3945V17.8945H114.648V18.3945H115.148ZM117.082 18.3945H117.582V17.8945H117.082V18.3945ZM116.818 29.791L116.33 29.683L116.329 29.6876L116.818 29.791ZM115.852 31.7539L116.216 32.0967L116.217 32.0956L115.852 31.7539ZM115.148 25.3281L115.531 25.6505L115.648 25.5109V25.3281H115.148ZM115.148 20.9238H115.648V20.7222L115.509 20.577L115.148 20.9238ZM108.876 32.592L109.101 30.9221L108.11 30.7888L107.885 32.4587L108.876 32.592ZM108.391 31.3073C109.562 31.8619 110.732 32.1465 111.896 32.1465V31.1465C110.899 31.1465 109.875 30.9037 108.82 30.4036L108.391 31.3073ZM111.896 32.1465C113.065 32.1465 114.032 31.8353 114.699 31.1278C115.361 30.4257 115.648 29.4183 115.648 28.1992H114.648C114.648 29.2783 114.393 29.9946 113.972 30.4416C113.555 30.8831 112.896 31.1465 111.896 31.1465V32.1465ZM115.648 28.1992V26.5293H114.648V28.1992H115.648ZM114.697 26.3136C114.375 26.9877 113.963 27.4655 113.474 27.7775C112.984 28.0891 112.385 28.2559 111.652 28.2559V29.2559C112.541 29.2559 113.335 29.0515 114.011 28.621C114.686 28.1907 115.212 27.5553 115.6 26.745L114.697 26.3136ZM111.652 28.2559C110.522 28.2559 109.66 27.853 109.014 27.0545L108.236 27.6838C109.087 28.7343 110.244 29.2559 111.652 29.2559V28.2559ZM109.014 27.0545C108.357 26.2439 108.002 25.1201 108.002 23.6289H107.002C107.002 25.2757 107.395 26.6454 108.236 27.6838L109.014 27.0545ZM108.002 23.6289C108.002 22.1054 108.402 20.9122 109.164 20.0051L108.398 19.3621C107.454 20.4862 107.002 21.9233 107.002 23.6289H108.002ZM109.164 20.0051C109.92 19.1054 110.882 18.6602 112.092 18.6602V17.6602C110.593 17.6602 109.349 18.2306 108.398 19.3621L109.164 20.0051ZM112.092 18.6602C113.12 18.6602 114.007 19.0702 114.774 19.9369L115.523 19.2741C114.584 18.2137 113.433 17.6602 112.092 17.6602V18.6602ZM115.648 19.6055V18.3945H114.648V19.6055H115.648ZM115.148 18.8945H117.082V17.8945H115.148V18.8945ZM116.582 18.3945V26.1094H117.582V18.3945H116.582ZM116.582 26.1094C116.582 27.7626 116.494 28.9445 116.33 29.683L117.307 29.8991C117.495 29.049 117.582 27.7765 117.582 26.1094H116.582ZM116.329 29.6876C116.175 30.4151 115.889 30.982 115.487 31.4122L116.217 32.0956C116.764 31.5102 117.123 30.7685 117.308 29.8944L116.329 29.6876ZM115.488 31.4111C114.778 32.165 113.631 32.5918 111.936 32.5918V33.5918C113.782 33.5918 115.246 33.1266 116.216 32.0967L115.488 31.4111ZM111.936 32.5918C110.75 32.5918 109.619 32.4111 108.539 32.051L108.223 32.9997C109.408 33.3949 110.647 33.5918 111.936 33.5918V32.5918ZM115.648 25.3281V20.9238H114.648V25.3281H115.648ZM115.509 20.577C114.591 19.6238 113.546 19.1055 112.385 19.1055V20.1055C113.215 20.1055 114.013 20.4661 114.788 21.2706L115.509 20.577ZM112.385 19.1055C111.341 19.1055 110.493 19.5362 109.896 20.3814L110.713 20.9584C111.119 20.3844 111.658 20.1055 112.385 20.1055V19.1055ZM109.896 20.3814C109.315 21.2044 109.053 22.2917 109.053 23.5898H110.053C110.053 22.414 110.292 21.5548 110.713 20.9584L109.896 20.3814ZM109.053 23.5898C109.053 24.7953 109.262 25.7886 109.757 26.4922C110.274 27.2279 111.052 27.5762 112.004 27.5762V26.5762C111.321 26.5762 110.874 26.3434 110.575 25.917C110.252 25.4585 110.053 24.7086 110.053 23.5898H109.053ZM112.004 27.5762C113.314 27.5762 114.489 26.8847 115.531 25.6505L114.766 25.0057C113.841 26.1022 112.921 26.5762 112.004 26.5762V27.5762ZM120.822 29H120.322V29.5H120.822V29ZM120.822 13.5801V13.0801H120.322V13.5801H120.822ZM122.746 13.5801H123.246V13.0801H122.746V13.5801ZM122.746 20.3867H122.246V22.0029L123.159 20.6691L122.746 20.3867ZM128.674 19.0391L128.308 19.3802L128.31 19.3823L128.674 19.0391ZM129.494 29V29.5H129.994V29H129.494ZM127.57 29H127.07V29.5H127.57V29ZM127.219 20.3281L126.804 20.6074L126.81 20.6165L127.219 20.3281ZM122.746 22.1348L122.332 21.855L122.246 21.9818V22.1348H122.746ZM122.746 29V29.5H123.246V29H122.746ZM121.322 29V13.5801H120.322V29H121.322ZM120.822 14.0801H122.746V13.0801H120.822V14.0801ZM122.246 13.5801V20.3867H123.246V13.5801H122.246ZM123.159 20.6691C124.105 19.2865 125.208 18.6602 126.477 18.6602V17.6602C124.802 17.6602 123.419 18.5182 122.333 20.1044L123.159 20.6691ZM126.477 18.6602C127.278 18.6602 127.87 18.9107 128.308 19.3802L129.039 18.6979C128.384 17.9955 127.511 17.6602 126.477 17.6602V18.6602ZM128.31 19.3823C128.75 19.8483 128.994 20.496 128.994 21.3828H129.994C129.994 20.3035 129.691 19.3887 129.037 18.6959L128.31 19.3823ZM128.994 21.3828V29H129.994V21.3828H128.994ZM129.494 28.5H127.57V29.5H129.494V28.5ZM128.07 29V22.0078H127.07V29H128.07ZM128.07 22.0078C128.07 21.1986 127.955 20.5046 127.627 20.0398L126.81 20.6165C126.951 20.8157 127.07 21.2415 127.07 22.0078H128.07ZM127.634 20.0489C127.285 19.5309 126.719 19.3203 126.076 19.3203V20.3203C126.501 20.3203 126.697 20.4483 126.804 20.6073L127.634 20.0489ZM126.076 19.3203C124.652 19.3203 123.411 20.2569 122.332 21.855L123.16 22.4145C124.165 20.9267 125.143 20.3203 126.076 20.3203V19.3203ZM122.246 22.1348V29H123.246V22.1348H122.246ZM122.746 28.5H120.822V29.5H122.746V28.5Z" fill="black"/>
</g>
<g filter="url(#filter1_d_48_3955)">
<path d="M43.7559 2.72585C44.2002 2.72585 44.513 2.8084 44.6759 2.87109C44.8715 3.39175 45.1339 5.25761 43.2052 7.18757L33.3666 17.0255L33.4375 18.246C33.5868 20.8002 33.8634 25.3778 34.102 29.3017C34.3125 32.7943 34.5123 36.0927 34.5252 36.3735C34.532 36.5664 34.5347 36.612 34.3548 36.8287C33.9528 37.3174 33.2024 38.1454 32.57 38.8316C31.5894 36.1895 29.5286 30.6088 28.3905 27.4849L26.928 23.4655L23.9029 26.4906L18.3399 31.8396L17.5651 32.6131L17.5412 33.7069C17.5228 34.5798 17.5269 36.1466 17.529 37.5279C17.5317 38.4902 17.5345 39.3646 17.5277 39.8464C17.5154 39.8688 17.7137 39.8954 17.6953 39.9275C17.5767 39.7373 17.4493 39.5322 17.3144 39.3189C16.1926 37.53 14.6402 35.0555 14.1666 34.2834L13.8204 33.7178L13.252 33.3743C11.1851 32.1258 8.89529 30.6845 7.49825 29.7842C7.54663 29.7563 7.58612 29.9042 7.61815 29.8871H7.70878C8.14834 29.8871 8.8748 29.8966 9.68918 29.9082C10.7543 29.9225 11.9626 29.9403 12.8874 29.9403C13.2418 29.9403 13.5566 29.9375 13.8101 29.9321L14.9039 29.9069L15.6774 29.1334L21.0332 23.6086L24.0481 20.5951L20.0471 19.1231C17.0404 18.017 11.2812 15.8662 8.58726 14.8542C9.27824 14.2177 10.111 13.462 10.5969 13.0598C10.7325 12.9481 10.8382 12.8909 10.9111 12.8909L11.0072 12.8936C11.3077 12.9079 15.0402 13.1519 18.6486 13.3877C22.4792 13.6378 26.8026 13.9199 29.2606 14.076L30.4894 14.153L40.3293 4.31235C41.7114 2.93234 43.0689 2.72585 43.7559 2.72585ZM43.7559 4.25897e-05C42.1456 4.25897e-05 40.1687 0.618745 38.4029 2.38515L29.4326 11.3549C24.38 11.0352 11.44 10.1793 11.119 10.1704C11.0498 10.1669 10.9805 10.1651 10.9112 10.1649C10.4743 10.1649 9.71993 10.2488 8.86126 10.9582C7.85334 11.7917 5.75165 13.768 5.75165 13.768C5.24462 14.2764 4.9877 14.9061 5.04903 15.4983C5.08652 15.8561 5.28074 16.5082 6.15917 16.8517C6.69278 17.061 15.1848 20.238 19.1061 21.6807L13.7503 27.2055C13.5131 27.211 13.2194 27.2137 12.8875 27.2137C11.2546 27.2137 8.72292 27.1606 7.70814 27.1606C7.57389 27.1606 7.46622 27.1606 7.38985 27.1633C7.08114 27.1728 6.4419 27.0209 4.75591 28.4302L4.63597 28.5419C4.13031 29.0476 4.01173 29.5519 4.00083 29.8851C3.98992 30.2286 4.08192 30.7234 4.57873 31.1214C4.87722 31.3626 8.70375 33.8125 11.8419 35.7077C12.5943 36.9351 16.0563 42.4374 16.2369 42.7359C16.5007 43.1816 16.932 43.4358 17.4479 43.4521H17.4909C17.9924 43.4521 18.5076 43.2034 19.0119 42.7134C20.439 41.0445 20.242 40.3535 20.2481 40.0631C20.2706 39.1527 20.2324 35.2954 20.2651 33.7662L25.8274 28.4165C27.249 32.3214 30.3566 40.7262 30.5644 41.2611C30.9106 42.1396 31.5628 42.3325 31.9206 42.3685C31.9792 42.3753 32.0392 42.3781 32.0978 42.3781C32.6355 42.3781 33.1929 42.1253 33.6495 41.6687C33.6495 41.6687 35.6197 39.5779 36.4565 38.5605C37.2948 37.5437 37.2621 36.6755 37.2457 36.2659C37.2389 35.9824 36.4497 23.1126 36.1567 18.0866L45.1291 9.11417C48.309 5.93296 47.8033 2.09965 46.6223 0.920686C46.1009 0.396624 45.0453 8.51825e-05 43.7559 4.25897e-05Z" fill="black"/>
</g>
<defs>
<filter id="filter0_d_48_3955" x="49.9766" y="13.5801" width="83.5176" height="27.5117" filterUnits="userSpaceOnUse" color-interpolation-filters="sRGB">
<feFlood flood-opacity="0" result="BackgroundImageFix"/>
<feColorMatrix in="SourceAlpha" type="matrix" values="0 0 0 0 0 0 0 0 0 0 0 0 0 0 0 0 0 0 127 0" result="hardAlpha"/>
<feOffset dy="4"/>
<feGaussianBlur stdDeviation="2"/>
<feComposite in2="hardAlpha" operator="out"/>
<feColorMatrix type="matrix" values="0 0 0 0 0 0 0 0 0 0 0 0 0 0 0 0 0 0 0.25 0"/>
<feBlend mode="normal" in2="BackgroundImageFix" result="effect1_dropShadow_48_3955"/>
<feBlend mode="normal" in="SourceGraphic" in2="effect1_dropShadow_48_3955" result="shape"/>
</filter>
<filter id="filter1_d_48_3955" x="0" y="0" width="51.5327" height="51.4521" filterUnits="userSpaceOnUse" color-interpolation-filters="sRGB">
<feFlood flood-opacity="0" result="BackgroundImageFix"/>
<feColorMatrix in="SourceAlpha" type="matrix" values="0 0 0 0 0 0 0 0 0 0 0 0 0 0 0 0 0 0 127 0" result="hardAlpha"/>
<feOffset dy="4"/>
<feGaussianBlur stdDeviation="2"/>
<feComposite in2="hardAlpha" operator="out"/>
<feColorMatrix type="matrix" values="0 0 0 0 0 0 0 0 0 0 0 0 0 0 0 0 0 0 0.25 0"/>
<feBlend mode="normal" in2="BackgroundImageFix" result="effect1_dropShadow_48_3955"/>
<feBlend mode="normal" in="SourceGraphic" in2="effect1_dropShadow_48_3955" result="shape"/>
</filter>
</defs>
</svg>
